<svg xmlns="http://www.w3.org/2000/svg" width="20" height="20" viewBox="0 0 20 20" fill="none">
  <path d="M10 3.95825C10 3.79249 9.93419 3.63352 9.81698 3.51631C9.69977 3.3991 9.5408 3.33325 9.37504 3.33325H5.00004C4.55801 3.33325 4.13409 3.50885 3.82153 3.82141C3.50897 4.13397 3.33337 4.55789 3.33337 4.99992V14.9999C3.33337 15.4419 3.50897 15.8659 3.82153 16.1784C4.13409 16.491 4.55801 16.6666 5.00004 16.6666H15C15.4421 16.6666 15.866 16.491 16.1786 16.1784C16.4911 15.8659 16.6667 15.4419 16.6667 14.9999V10.6249C16.6667 10.4592 16.6009 10.3002 16.4836 10.183C16.3664 10.0658 16.2075 9.99992 16.0417 9.99992C15.8759 9.99992 15.717 10.0658 15.5998 10.183C15.4826 10.3002 15.4167 10.4592 15.4167 10.6249V14.9999C15.4167 15.1104 15.3728 15.2164 15.2947 15.2945C15.2165 15.3727 15.1105 15.4166 15 15.4166H5.00004C4.88953 15.4166 4.78355 15.3727 4.70541 15.2945C4.62727 15.2164 4.58337 15.1104 4.58337 14.9999V4.99992C4.58337 4.88941 4.62727 4.78343 4.70541 4.70529C4.78355 4.62715 4.88953 4.58325 5.00004 4.58325H9.37504C9.5408 4.58325 9.69977 4.5174 9.81698 4.40019C9.93419 4.28298 10 4.12401 10 3.95825Z" fill="white"/>
  <path d="M16.5717 7.05578C16.5893 7.07154 16.6034 7.09087 16.613 7.11249C16.6225 7.1341 16.6274 7.15751 16.6273 7.18116C16.6271 7.2048 16.6219 7.22815 16.612 7.24963C16.6022 7.27112 16.5878 7.29026 16.57 7.30578L12.7767 10.6491C12.7526 10.6703 12.723 10.684 12.6913 10.6887C12.6596 10.6935 12.6272 10.689 12.598 10.6758C12.5689 10.6626 12.5441 10.6413 12.5267 10.6144C12.5093 10.5875 12.5 10.5561 12.5 10.5241V8.74995C12.5 8.21412 11.9942 8.54828 11.1842 8.69078C10.3192 8.84162 8.74334 9.92162 7.96334 10.4883C7.8275 10.5866 7.6475 10.4508 7.71084 10.2958C8.0775 9.40162 8.86334 7.64995 9.605 7.08328C11.7108 5.47578 12.5 6.07162 12.5 5.53578V3.76662C12.5001 3.73441 12.5095 3.70292 12.5271 3.67595C12.5447 3.64898 12.5697 3.62768 12.5992 3.61463C12.6286 3.60158 12.6612 3.59735 12.693 3.60243C12.7248 3.60752 12.7544 3.62171 12.7783 3.64328L16.5717 7.05578Z" fill="white"/>
</svg>