<svg xmlns="http://www.w3.org/2000/svg" width="36" height="38" viewBox="0 0 36 38" fill="none">
  <g filter="url(#filter0_d_1024_2179)">
    <path d="M27.5378 16.611H18.5514C17.9065 16.611 17.3849 16.0894 17.3849 15.4445V6.45814C17.3849 5.76719 16.7875 5.21985 16.1006 5.29707C10.3291 5.94467 5.86234 10.9087 6.00324 16.8847C6.1455 22.9244 11.0716 27.8505 17.1113 27.9927C23.0886 28.1336 28.0513 23.6668 28.6989 17.8954C28.7747 17.2085 28.2274 16.611 27.5378 16.611Z" fill="url(#paint0_linear_1024_2179)"/>
  </g>
  <g filter="url(#filter1_d_1024_2179)">
    <path d="M29.9927 14.0369C29.402 8.77483 25.2251 4.59797 19.9631 4.00728C19.2762 3.93006 18.6787 4.4774 18.6787 5.16834V15.0692C18.6787 15.2088 18.7912 15.3212 18.9307 15.3212H28.8316C29.5225 15.3212 30.0699 14.7238 29.9927 14.0369Z" fill="url(#paint1_linear_1024_2179)"/>
  </g>
  <defs>
    <filter id="filter0_d_1024_2179" x="0" y="3.28979" width="34.7058" height="34.7061" filterUnits="userSpaceOnUse" color-interpolation-filters="sRGB">
      <feFlood flood-opacity="0" result="BackgroundImageFix"/>
      <feColorMatrix in="SourceAlpha" type="matrix" values="0 0 0 0 0 0 0 0 0 0 0 0 0 0 0 0 0 0 127 0" result="hardAlpha"/>
      <feOffset dy="4"/>
      <feGaussianBlur stdDeviation="3"/>
      <feComposite in2="hardAlpha" operator="out"/>
      <feColorMatrix type="matrix" values="0 0 0 0 0.180392 0 0 0 0 0.521569 0 0 0 0 0.94902 0 0 0 0.2 0"/>
      <feBlend mode="normal" in2="BackgroundImageFix" result="effect1_dropShadow_1024_2179"/>
      <feBlend mode="normal" in="SourceGraphic" in2="effect1_dropShadow_1024_2179" result="shape"/>
    </filter>
    <filter id="filter1_d_1024_2179" x="12.6787" y="2" width="23.3213" height="23.3213" filterUnits="userSpaceOnUse" color-interpolation-filters="sRGB">
      <feFlood flood-opacity="0" result="BackgroundImageFix"/>
      <feColorMatrix in="SourceAlpha" type="matrix" values="0 0 0 0 0 0 0 0 0 0 0 0 0 0 0 0 0 0 127 0" result="hardAlpha"/>
      <feOffset dy="4"/>
      <feGaussianBlur stdDeviation="3"/>
      <feComposite in2="hardAlpha" operator="out"/>
      <feColorMatrix type="matrix" values="0 0 0 0 0.180392 0 0 0 0 0.521569 0 0 0 0 0.94902 0 0 0 0.2 0"/>
      <feBlend mode="normal" in2="BackgroundImageFix" result="effect1_dropShadow_1024_2179"/>
      <feBlend mode="normal" in="SourceGraphic" in2="effect1_dropShadow_1024_2179" result="shape"/>
    </filter>
    <linearGradient id="paint0_linear_1024_2179" x1="17.353" y1="5.28979" x2="17.353" y2="27.996" gradientUnits="userSpaceOnUse">
      <stop stop-color="#2FE0EB"/>
      <stop offset="1" stop-color="#2D4DF6"/>
    </linearGradient>
    <linearGradient id="paint1_linear_1024_2179" x1="24.3393" y1="4" x2="24.3393" y2="15.3212" gradientUnits="userSpaceOnUse">
      <stop stop-color="#2FE0EB"/>
      <stop offset="1" stop-color="#2D4DF6"/>
    </linearGradient>
  </defs>
</svg>