<svg xmlns="http://www.w3.org/2000/svg" width="35" height="38" viewBox="0 0 35 38" fill="none">
  <g filter="url(#filter0_d_1024_2150)">
    <path d="M20.0626 7.87373C20.1439 8.03082 20.2468 8.17437 20.3714 8.29897C20.4933 8.41543 20.6585 8.47773 20.8264 8.47231H24.4369V8.08499C24.4342 7.96311 24.4179 7.84393 24.3881 7.72747C24.3339 7.55683 24.2446 7.39703 24.1281 7.2616C23.9439 7.02596 23.7435 6.80115 23.5268 6.5926C23.2668 6.33258 22.9174 6.00214 22.4732 5.62566C22.029 5.24917 21.7283 4.96749 21.4873 4.77518C21.2462 4.58288 20.9835 4.3987 20.7993 4.2714C20.6504 4.17118 20.4878 4.09805 20.3145 4.0493C20.1764 4.03305 20.0355 4.03305 19.8974 4.0493H19.8486V6.90408C19.8513 7.04492 19.8649 7.22368 19.8947 7.36182C19.938 7.54871 19.9597 7.62184 20.0355 7.80602L20.0626 7.87373Z" fill="url(#paint0_linear_1024_2150)"/>
  </g>
  <g filter="url(#filter1_d_1024_2150)">
    <path d="M20.8454 15.5171C20.5502 15.796 20.1574 15.9504 19.7512 15.9423H10.5855C10.1847 15.9504 9.79735 15.796 9.51024 15.5171C9.21772 15.2435 9.05792 14.8616 9.06605 14.4635C9.06063 14.0626 9.22043 13.6753 9.51024 13.399C9.79193 13.1119 10.182 12.9548 10.5855 12.9629H19.7891C20.1981 12.9548 20.5908 13.1119 20.8833 13.399C21.1785 13.6753 21.3438 14.0599 21.3384 14.4635C21.3438 14.8643 21.1785 15.2462 20.8833 15.5171H20.8454ZM20.8454 9.97272C20.4337 9.98627 20.0274 9.88334 19.6753 9.67208C19.3584 9.4879 19.0849 9.23601 18.8709 8.93536C18.6678 8.64013 18.5134 8.3124 18.4159 7.96842C18.3265 7.65423 18.2777 7.32921 18.2696 7.00148V4.00044H8.90353C8.5108 3.99231 8.12619 4.09794 7.79033 4.30108C7.44906 4.4988 7.13758 4.74799 6.87214 5.0378C6.60942 5.3249 6.39274 5.64992 6.23293 6.00474C6.08396 6.34331 6.00271 6.70896 6 7.08002V23.3582C6.00271 23.7645 6.11105 24.1627 6.31961 24.5094C6.53358 24.8696 6.80172 25.1973 7.1132 25.4763C7.42468 25.7526 7.77408 25.9828 8.14786 26.1643C8.4485 26.3186 8.77894 26.408 9.1148 26.4243H15.8888L20.6504 21.5841C20.3931 21.7819 20.0762 21.8848 19.7512 21.874H10.5855C10.182 21.8821 9.79464 21.725 9.51024 21.4379C9.23397 21.1833 9.07417 20.8258 9.06605 20.452C9.05792 20.0511 9.22043 19.6638 9.51024 19.3875C9.78922 19.095 10.1792 18.9325 10.5855 18.9433H19.7891C20.2008 18.9352 20.5962 19.095 20.8833 19.3875C21.1785 19.6638 21.3438 20.0484 21.3384 20.452C21.3384 20.7499 21.2436 21.0424 21.0675 21.2835L24.4342 17.887V9.97272H20.8454ZM22.0344 22.4428L21.1542 23.3149L20.3416 24.1193L19.7322 24.7206L19.4126 25.0294C19.2474 25.1838 19.1147 25.368 19.0144 25.5711C18.963 25.6903 18.9169 25.8149 18.879 25.9395L18.6948 26.5001L18.5215 27.0797C18.4727 27.272 18.4429 27.4183 18.424 27.505C18.3834 27.6404 18.3996 27.7894 18.4727 27.9113C18.5404 27.9898 18.665 28.0169 18.8709 27.9898C19.0171 27.9627 19.1634 27.9275 19.307 27.8842C19.5155 27.8408 19.7241 27.7867 19.9272 27.7189C20.1412 27.6621 20.3443 27.5835 20.5556 27.5158L21.0675 27.2829L21.3573 27.1095L21.6282 26.9064L22.4597 26.0749L23.2722 25.2813L24.1525 24.42L26.5333 22.1069L24.4748 20.0918L22.0344 22.4428ZM28.1422 20.2272C28.1286 20.062 28.0961 19.8994 28.0446 19.7424C27.9417 19.5067 27.7928 19.2927 27.6086 19.114C27.4623 18.9433 27.2863 18.7998 27.0858 18.6969C26.9098 18.6021 26.7148 18.5506 26.5143 18.5425C26.2814 18.5181 26.0512 18.5994 25.886 18.7646L25.5772 19.0246C25.4743 19.1275 25.3632 19.225 25.2495 19.3144L27.3296 21.3268C27.3919 21.2835 27.4515 21.2348 27.5029 21.1806L27.6763 20.9964L27.8984 20.7743C28.0582 20.6389 28.1476 20.4384 28.1422 20.2272Z" fill="url(#paint1_linear_1024_2150)"/>
  </g>
  <defs>
    <filter id="filter0_d_1024_2150" x="13.8486" y="2.03711" width="16.5881" height="16.4355" filterUnits="userSpaceOnUse" color-interpolation-filters="sRGB">
      <feFlood flood-opacity="0" result="BackgroundImageFix"/>
      <feColorMatrix in="SourceAlpha" type="matrix" values="0 0 0 0 0 0 0 0 0 0 0 0 0 0 0 0 0 0 127 0" result="hardAlpha"/>
      <feOffset dy="4"/>
      <feGaussianBlur stdDeviation="3"/>
      <feComposite in2="hardAlpha" operator="out"/>
      <feColorMatrix type="matrix" values="0 0 0 0 1 0 0 0 0 0.627451 0 0 0 0 0.356863 0 0 0 0.2 0"/>
      <feBlend mode="normal" in2="BackgroundImageFix" result="effect1_dropShadow_1024_2150"/>
      <feBlend mode="normal" in="SourceGraphic" in2="effect1_dropShadow_1024_2150" result="shape"/>
    </filter>
    <filter id="filter1_d_1024_2150" x="0" y="2" width="34.1423" height="36" filterUnits="userSpaceOnUse" color-interpolation-filters="sRGB">
      <feFlood flood-opacity="0" result="BackgroundImageFix"/>
      <feColorMatrix in="SourceAlpha" type="matrix" values="0 0 0 0 0 0 0 0 0 0 0 0 0 0 0 0 0 0 127 0" result="hardAlpha"/>
      <feOffset dy="4"/>
      <feGaussianBlur stdDeviation="3"/>
      <feComposite in2="hardAlpha" operator="out"/>
      <feColorMatrix type="matrix" values="0 0 0 0 1 0 0 0 0 0.627451 0 0 0 0 0.356863 0 0 0 0.2 0"/>
      <feBlend mode="normal" in2="BackgroundImageFix" result="effect1_dropShadow_1024_2150"/>
      <feBlend mode="normal" in="SourceGraphic" in2="effect1_dropShadow_1024_2150" result="shape"/>
    </filter>
    <linearGradient id="paint0_linear_1024_2150" x1="19.8486" y1="6.25487" x2="24.4369" y2="6.25487" gradientUnits="userSpaceOnUse">
      <stop stop-color="#FF7E21"/>
      <stop offset="1" stop-color="#FFB681"/>
    </linearGradient>
    <linearGradient id="paint1_linear_1024_2150" x1="6" y1="16" x2="28.1424" y2="16" gradientUnits="userSpaceOnUse">
      <stop stop-color="#FF7E21"/>
      <stop offset="1" stop-color="#FFB681"/>
    </linearGradient>
  </defs>
</svg>