<svg xmlns="http://www.w3.org/2000/svg" width="20" height="20" viewBox="0 0 20 20" fill="none">
  <path d="M10 3.57119C10.8687 3.57119 11.7106 3.74024 12.5022 4.07666C13.2671 4.39969 13.955 4.86331 14.5459 5.45414C15.1367 6.04497 15.6003 6.73287 15.9233 7.49777C16.2581 8.28944 16.4288 9.13133 16.4288 10C16.4288 10.8687 16.2598 11.7106 15.9233 12.5022C15.6003 13.2671 15.1367 13.955 14.5459 14.5459C13.955 15.1367 13.2671 15.6003 12.5022 15.9233C11.7106 16.2581 10.8687 16.4288 10 16.4288C9.13133 16.4288 8.28944 16.2598 7.49777 15.9233C6.73287 15.6003 6.04497 15.1367 5.45414 14.5459C4.86331 13.955 4.39969 13.2671 4.07666 12.5022C3.74191 11.7106 3.57119 10.8687 3.57119 10C3.57119 9.13133 3.74024 8.28944 4.07666 7.49777C4.39969 6.73287 4.86331 6.04497 5.45414 5.45414C6.04497 4.86331 6.73287 4.39969 7.49777 4.07666C8.28944 3.74191 9.13133 3.57119 10 3.57119ZM10 2.5C5.85751 2.5 2.5 5.85751 2.5 10C2.5 14.1425 5.85751 17.5 10 17.5C14.1425 17.5 17.5 14.1425 17.5 10C17.5 5.85751 14.1425 2.5 10 2.5Z" fill="#86909C"/>
  <path d="M9.46432 13.7491H10.5355V14.8203H9.46432V13.7491ZM9.41243 12.9173C9.40741 12.7616 9.40574 12.211 9.40574 12.134C9.40574 11.6771 9.47101 11.2837 9.59989 10.9523C9.69529 10.7029 9.8476 10.4502 10.0585 10.1975C10.2141 10.0117 10.492 9.74222 10.8954 9.38739C11.2971 9.03255 11.5598 8.74969 11.6803 8.5388C11.8008 8.32791 11.8611 8.09694 11.8611 7.84755C11.8611 7.39564 11.6854 6.99897 11.3322 6.65585C10.979 6.31441 10.5472 6.14202 10.0351 6.14202C9.53963 6.14202 9.12622 6.29767 8.79482 6.60731C8.46342 6.91695 8.24584 7.40066 8.14207 8.06012L6.94702 7.91785C7.05414 7.03579 7.37382 6.3596 7.90607 5.89096C8.43832 5.42231 9.13961 5.18799 10.0133 5.18799C10.9389 5.18799 11.677 5.43905 12.2277 5.94284C12.7783 6.44664 13.0545 7.05587 13.0545 7.77056C13.0545 8.18397 12.9574 8.56391 12.7632 8.91372C12.5691 9.26353 12.1908 9.68698 11.6268 10.1858C11.2485 10.5222 11.0008 10.7682 10.8836 10.9289C10.7682 11.0879 10.6811 11.2703 10.6259 11.4779C10.5707 11.6837 10.5372 12.4553 10.5288 12.9206H9.41243V12.9173Z" fill="#86909C"/>
</svg>