<svg width="33" height="37" viewBox="0 0 33 37" fill="none" xmlns="http://www.w3.org/2000/svg">
<g id="&#230;&#182;&#136;&#228;&#191;&#157;&#229;&#174;&#161;&#230;&#159;&#165;/&#229;&#133;&#168;&#233;&#131;&#168;">
<g id="Vector" filter="url(#filter0_d_1019_2993)">
<path d="M23.0628 4.39053C21.6919 3.79762 20.2319 3.5 18.7696 3.5C17.3072 3.5 15.8425 3.79762 14.4739 4.39287L9.58308 6.50904V12.5412C9.57839 13.9145 9.81508 15.276 10.2767 16.5696C10.7244 17.8351 11.3665 19.0209 12.1773 20.0849C12.9975 21.1699 13.9888 22.112 15.1067 22.8806C16.2198 23.6423 17.4619 24.1907 18.7672 24.5C20.0725 24.1883 21.3075 23.6423 22.4184 22.8853C23.5386 22.1214 24.5275 21.1746 25.3477 20.0896C26.1656 19.0233 26.8124 17.8351 27.2624 16.5649C27.724 15.2737 27.9584 13.9121 27.956 12.5388V6.50904L23.0628 4.39053ZM23.8713 11.4679L21.6192 13.6614C21.5794 13.6989 21.563 13.7528 21.5724 13.8067L22.1043 16.9048C22.1512 17.1743 21.8676 17.3758 21.6286 17.2516L18.8469 15.7893C18.8 15.7635 18.7414 15.7635 18.6946 15.7893L15.9105 17.2539C15.6715 17.3805 15.3879 17.1766 15.4348 16.9071L15.9667 13.809C15.9738 13.7551 15.9574 13.7012 15.9199 13.6637L13.6678 11.4679C13.4733 11.278 13.5787 10.9476 13.8506 10.9078L16.9604 10.4578C17.0143 10.4484 17.0611 10.4156 17.0822 10.3664L18.4719 7.5472C18.5938 7.30348 18.9406 7.30348 19.0601 7.5472L20.4522 10.3664C20.4756 10.4156 20.5225 10.4484 20.574 10.4578L23.6838 10.9078C23.958 10.9476 24.0658 11.278 23.8713 11.4679Z" fill="url(#paint0_linear_1019_2993)"/>
</g>
</g>
<defs>
<filter id="filter0_d_1019_2993" x="0.583008" y="3.5" width="30.373" height="33" filterUnits="userSpaceOnUse" color-interpolation-filters="sRGB">
<feFlood flood-opacity="0" result="BackgroundImageFix"/>
<feColorMatrix in="SourceAlpha" type="matrix" values="0 0 0 0 0 0 0 0 0 0 0 0 0 0 0 0 0 0 127 0" result="hardAlpha"/>
<feOffset dx="-3" dy="6"/>
<feGaussianBlur stdDeviation="3"/>
<feComposite in2="hardAlpha" operator="out"/>
<feColorMatrix type="matrix" values="0 0 0 0 0.447059 0 0 0 0 0.478431 0 0 0 0 1 0 0 0 0.3 0"/>
<feBlend mode="normal" in2="BackgroundImageFix" result="effect1_dropShadow_1019_2993"/>
<feBlend mode="normal" in="SourceGraphic" in2="effect1_dropShadow_1019_2993" result="shape"/>
</filter>
<linearGradient id="paint0_linear_1019_2993" x1="9.58301" y1="14.4773" x2="29.334" y2="14.4773" gradientUnits="userSpaceOnUse">
<stop stop-color="#7B61FF"/>
<stop offset="1" stop-color="#61A0FF"/>
</linearGradient>
</defs>
</svg>
