<svg width="34" height="37" viewBox="0 0 34 37" fill="none" xmlns="http://www.w3.org/2000/svg">
<g id="&#230;&#182;&#136;&#228;&#191;&#157;&#229;&#174;&#161;&#230;&#159;&#165;/&#229;&#183;&#178;&#231;&#187;&#147;&#230;&#157;&#159;">
<g id="Vector" filter="url(#filter0_d_1019_2981)">
<path d="M19.666 3.5C17.5893 3.5 15.5592 4.11581 13.8325 5.26957C12.1058 6.42332 10.76 8.0632 9.96529 9.98182C9.17057 11.9004 8.96263 14.0116 9.36777 16.0484C9.77292 18.0852 10.7729 19.9562 12.2414 21.4246C13.7098 22.8931 15.5808 23.8931 17.6176 24.2982C19.6544 24.7034 21.7656 24.4954 23.6842 23.7007C25.6028 22.906 27.2427 21.5602 28.3964 19.8335C29.5502 18.1068 30.166 16.0767 30.166 14C30.166 11.2152 29.0598 8.54451 27.0906 6.57538C25.1215 4.60625 22.4508 3.5 19.666 3.5ZM25.238 11.2245L18.7945 17.99C18.6975 18.0955 18.58 18.18 18.4491 18.2384C18.3183 18.2967 18.1768 18.3277 18.0336 18.3293C17.8903 18.3309 17.7482 18.3032 17.616 18.2479C17.4838 18.1925 17.3644 18.1107 17.265 18.0075L14.017 14.7595C13.9127 14.6552 13.8299 14.5313 13.7735 14.395C13.717 14.2587 13.6879 14.1125 13.6879 13.965C13.6879 13.8174 13.717 13.6713 13.7735 13.535C13.8299 13.3987 13.9127 13.2748 14.017 13.1705C14.1214 13.0662 14.2452 12.9834 14.3815 12.9269C14.5179 12.8705 14.664 12.8414 14.8115 12.8414C14.9591 12.8414 15.1052 12.8705 15.2415 12.9269C15.3778 12.9834 15.5017 13.0662 15.606 13.1705L17.6185 15.183C17.735 15.2999 17.8906 15.3695 18.0554 15.3786C18.2201 15.3876 18.3824 15.3354 18.511 15.232L24.524 10.444C24.6298 10.371 24.7586 10.3392 24.8862 10.3543C25.0139 10.3694 25.1316 10.4306 25.2174 10.5263C25.3032 10.6219 25.3512 10.7456 25.3525 10.8741C25.3537 11.0027 25.308 11.1272 25.224 11.2245H25.238Z" fill="url(#paint0_linear_1019_2981)"/>
</g>
</g>
<defs>
<filter id="filter0_d_1019_2981" x="0.166016" y="3.5" width="33" height="33" filterUnits="userSpaceOnUse" color-interpolation-filters="sRGB">
<feFlood flood-opacity="0" result="BackgroundImageFix"/>
<feColorMatrix in="SourceAlpha" type="matrix" values="0 0 0 0 0 0 0 0 0 0 0 0 0 0 0 0 0 0 127 0" result="hardAlpha"/>
<feOffset dx="-3" dy="6"/>
<feGaussianBlur stdDeviation="3"/>
<feComposite in2="hardAlpha" operator="out"/>
<feColorMatrix type="matrix" values="0 0 0 0 0.25098 0 0 0 0 0.894118 0 0 0 0 0.615686 0 0 0 0.3 0"/>
<feBlend mode="normal" in2="BackgroundImageFix" result="effect1_dropShadow_1019_2981"/>
<feBlend mode="normal" in="SourceGraphic" in2="effect1_dropShadow_1019_2981" result="shape"/>
</filter>
<linearGradient id="paint0_linear_1019_2981" x1="9.16602" y1="14" x2="30.166" y2="14" gradientUnits="userSpaceOnUse">
<stop stop-color="#11CA5B"/>
<stop offset="1" stop-color="#5DF4C6"/>
</linearGradient>
</defs>
</svg>
