<svg width="34" height="37" viewBox="0 0 34 37" fill="none" xmlns="http://www.w3.org/2000/svg">
<g id="&#230;&#182;&#136;&#228;&#191;&#157;&#229;&#174;&#161;&#230;&#159;&#165;/&#229;&#164;&#132;&#231;&#144;&#134;&#228;&#184;&#173;">
<g id="Vector" filter="url(#filter0_d_1019_7575)">
<path d="M26.375 14C26.375 13.803 26.3362 13.608 26.2608 13.426C26.1854 13.244 26.0749 13.0786 25.9357 12.9393C25.7964 12.8001 25.631 12.6896 25.449 12.6142C25.267 12.5388 25.072 12.5 24.875 12.5C24.678 12.5 24.483 12.5388 24.301 12.6142C24.119 12.6896 23.9536 12.8001 23.8143 12.9393C23.6751 13.0786 23.5646 13.244 23.4892 13.426C23.4138 13.608 23.375 13.803 23.375 14C23.375 14.6675 23.1771 15.32 22.8062 15.875C22.4354 16.4301 21.9083 16.8626 21.2916 17.1181C20.6749 17.3735 19.9963 17.4404 19.3416 17.3102C18.6869 17.1799 18.0855 16.8585 17.6135 16.3865C17.1415 15.9145 16.8201 15.3131 16.6898 14.6584C16.5596 14.0037 16.6265 13.3251 16.8819 12.7084C17.1374 12.0917 17.5699 11.5646 18.125 11.1938C18.68 10.8229 19.3325 10.625 20 10.625C20.3978 10.625 20.7794 10.467 21.0607 10.1857C21.342 9.90436 21.5 9.52282 21.5 9.125C21.5 8.72718 21.342 8.34564 21.0607 8.06434C20.7794 7.78304 20.3978 7.625 20 7.625C16.4791 7.625 13.625 10.4791 13.625 14C13.625 17.5209 16.4791 20.375 20 20.375C23.5209 20.375 26.375 17.5209 26.375 14ZM20 3.5C25.799 3.5 30.5 8.201 30.5 14C30.5 19.799 25.799 24.5 20 24.5C14.201 24.5 9.5 19.799 9.5 14C9.5 8.201 14.201 3.5 20 3.5Z" fill="url(#paint0_linear_1019_7575)"/>
</g>
</g>
<defs>
<filter id="filter0_d_1019_7575" x="0.5" y="3.5" width="33" height="33" filterUnits="userSpaceOnUse" color-interpolation-filters="sRGB">
<feFlood flood-opacity="0" result="BackgroundImageFix"/>
<feColorMatrix in="SourceAlpha" type="matrix" values="0 0 0 0 0 0 0 0 0 0 0 0 0 0 0 0 0 0 127 0" result="hardAlpha"/>
<feOffset dx="-3" dy="6"/>
<feGaussianBlur stdDeviation="3"/>
<feComposite in2="hardAlpha" operator="out"/>
<feColorMatrix type="matrix" values="0 0 0 0 1 0 0 0 0 0.384314 0 0 0 0 0.0313726 0 0 0 0.3 0"/>
<feBlend mode="normal" in2="BackgroundImageFix" result="effect1_dropShadow_1019_7575"/>
<feBlend mode="normal" in="SourceGraphic" in2="effect1_dropShadow_1019_7575" result="shape"/>
</filter>
<linearGradient id="paint0_linear_1019_7575" x1="9.5" y1="14" x2="30.5" y2="14" gradientUnits="userSpaceOnUse">
<stop stop-color="#FF5C00"/>
<stop offset="1" stop-color="#FFAE64"/>
</linearGradient>
</defs>
</svg>
