<svg width="33" height="35" viewBox="0 0 33 35" fill="none" xmlns="http://www.w3.org/2000/svg">
<g id="&#230;&#182;&#136;&#228;&#191;&#157;&#229;&#174;&#161;&#230;&#159;&#165;/&#229;&#190;&#133;&#229;&#138;&#158;">
<g id="Vector" filter="url(#filter0_d_1019_2967)">
<path d="M25.9625 3.25H12.7035C10.9809 3.25 9.58301 4.64793 9.58301 6.37047V19.6295C9.58301 21.3521 10.9809 22.75 12.7035 22.75H25.9625C27.6851 22.75 29.083 21.3521 29.083 19.6295V6.37047C29.083 4.64793 27.6851 3.25 25.9625 3.25ZM15.2269 15.8622L15.6486 13.4597C15.6534 13.4312 15.6676 13.4052 15.6889 13.3838L21.7427 7.33007C21.7687 7.30401 21.8066 7.28742 21.8446 7.28742C21.8825 7.28742 21.9204 7.30164 21.9464 7.33007L24.3206 9.70419C24.3774 9.76106 24.3774 9.85109 24.3206 9.90796L18.2644 15.9594C18.2431 15.9807 18.217 15.9949 18.1886 15.9996L15.786 16.4214C15.4567 16.4783 15.17 16.1916 15.2269 15.8622ZM25.0456 18.5988C25.0456 18.6604 24.9935 18.7126 24.9319 18.7126H13.7342C13.6726 18.7126 13.6204 18.6604 13.6204 18.5988V18.0847C13.6204 17.8312 13.8242 17.6274 14.0777 17.6274H24.5883C24.8418 17.6274 25.0456 17.8312 25.0456 18.0847V18.5988Z" fill="url(#paint0_linear_1019_2967)"/>
</g>
</g>
<defs>
<filter id="filter0_d_1019_2967" x="0.583008" y="3.25" width="31.5" height="31.5" filterUnits="userSpaceOnUse" color-interpolation-filters="sRGB">
<feFlood flood-opacity="0" result="BackgroundImageFix"/>
<feColorMatrix in="SourceAlpha" type="matrix" values="0 0 0 0 0 0 0 0 0 0 0 0 0 0 0 0 0 0 127 0" result="hardAlpha"/>
<feOffset dx="-3" dy="6"/>
<feGaussianBlur stdDeviation="3"/>
<feComposite in2="hardAlpha" operator="out"/>
<feColorMatrix type="matrix" values="0 0 0 0 0.447059 0 0 0 0 0.478431 0 0 0 0 1 0 0 0 0.3 0"/>
<feBlend mode="normal" in2="BackgroundImageFix" result="effect1_dropShadow_1019_2967"/>
<feBlend mode="normal" in="SourceGraphic" in2="effect1_dropShadow_1019_2967" result="shape"/>
</filter>
<linearGradient id="paint0_linear_1019_2967" x1="9.58301" y1="13.4432" x2="30.5455" y2="13.4432" gradientUnits="userSpaceOnUse">
<stop stop-color="#7B61FF"/>
<stop offset="1" stop-color="#61A0FF"/>
</linearGradient>
</defs>
</svg>
