<svg xmlns="http://www.w3.org/2000/svg" width="32" height="32" viewBox="0 0 32 32" fill="none">
  <path d="M6.57085 8.79556C6.57085 9.70494 6.9321 10.5771 7.57513 11.2201C8.21817 11.8632 9.09031 12.2244 9.9997 12.2244C10.9091 12.2244 11.7812 11.8632 12.4243 11.2201C13.0673 10.5771 13.4285 9.70494 13.4285 8.79556C13.4285 8.34527 13.3399 7.8994 13.1675 7.48339C12.9952 7.06739 12.7427 6.68939 12.4243 6.37099C12.1059 6.0526 11.7279 5.80003 11.3119 5.62771C10.8959 5.4554 10.45 5.36671 9.9997 5.36671C9.54941 5.36671 9.10354 5.4554 8.68753 5.62771C8.27153 5.80003 7.89353 6.0526 7.57513 6.37099C7.25674 6.68939 7.00417 7.06739 6.83185 7.48339C6.65954 7.8994 6.57085 8.34527 6.57085 8.79556ZM4.00001 16.081C3.99887 16.4756 4.07562 16.8667 4.22587 17.2316C4.37611 17.5966 4.5969 17.9283 4.87557 18.2078C5.15424 18.4873 5.48533 18.709 5.84985 18.8603C6.21438 19.0116 6.60517 19.0895 6.99985 19.0895C7.39452 19.0895 7.78532 19.0116 8.14984 18.8603C8.51437 18.709 8.84545 18.4873 9.12413 18.2078C9.4028 17.9283 9.62358 17.5966 9.77383 17.2316C9.92407 16.8667 10.0008 16.4756 9.99968 16.081C10.0008 15.6863 9.92407 15.2953 9.77383 14.9303C9.62358 14.5653 9.4028 14.2336 9.12413 13.9541C8.84545 13.6747 8.51437 13.4529 8.14984 13.3016C7.78532 13.1503 7.39452 13.0724 6.99985 13.0724C6.60517 13.0724 6.21438 13.1503 5.84985 13.3016C5.48533 13.4529 5.15424 13.6747 4.87557 13.9541C4.5969 14.2336 4.37611 14.5653 4.22587 14.9303C4.07562 15.2953 3.99887 15.6863 4.00001 16.081ZM6.57148 22.5096C6.57148 23.1916 6.8424 23.8457 7.32464 24.3279C7.80689 24.8102 8.46095 25.0811 9.14295 25.0811C9.82495 25.0811 10.479 24.8102 10.9613 24.3279C11.4435 23.8457 11.7144 23.1916 11.7144 22.5096C11.7144 21.8276 11.4435 21.1736 10.9613 20.6913C10.479 20.2091 9.82495 19.9382 9.14295 19.9382C8.46095 19.9382 7.80689 20.2091 7.32464 20.6913C6.8424 21.1736 6.57148 21.8276 6.57148 22.5096ZM13.871 25.3386C13.871 25.9348 14.1078 26.5065 14.5294 26.9281C14.9509 27.3496 15.5227 27.5864 16.1188 27.5864C16.715 27.5864 17.2867 27.3496 17.7082 26.9281C18.1298 26.5065 18.3666 25.9348 18.3666 25.3386C18.3666 24.7425 18.1298 24.1708 17.7082 23.7492C17.2867 23.3277 16.715 23.0909 16.1188 23.0909C15.5227 23.0909 14.9509 23.3277 14.5294 23.7492C14.1078 24.1708 13.871 24.7425 13.871 25.3386ZM21.1423 22.9387C21.1423 23.5071 21.3681 24.0522 21.77 24.4541C22.1719 24.856 22.717 25.0818 23.2854 25.0818C23.8538 25.0818 24.3989 24.856 24.8008 24.4541C25.2027 24.0522 25.4285 23.5071 25.4285 22.9387C25.4285 22.3703 25.2027 21.8252 24.8008 21.4233C24.3989 21.0214 23.8538 20.7956 23.2854 20.7956C22.717 20.7956 22.1719 21.0214 21.77 21.4233C21.3681 21.8252 21.1423 22.3703 21.1423 22.9387ZM24.5718 15.6526C24.5718 16.1072 24.7524 16.5432 25.0738 16.8647C25.3953 17.1861 25.8313 17.3667 26.2859 17.3667C26.7405 17.3667 27.1765 17.1861 27.4979 16.8647C27.8194 16.5432 28 16.1072 28 15.6526C28 15.198 27.8194 14.762 27.4979 14.4405C27.1765 14.1191 26.7405 13.9385 26.2859 13.9385C25.8313 13.9385 25.3953 14.1191 25.0738 14.4405C24.7524 14.762 24.5718 15.198 24.5718 15.6526ZM21.9997 9.22392C21.9997 9.39276 22.033 9.55995 22.0976 9.71594C22.1622 9.87194 22.2569 10.0137 22.3763 10.1331C22.4957 10.2525 22.6374 10.3472 22.7934 10.4118C22.9494 10.4764 23.1166 10.5096 23.2854 10.5096C23.4543 10.5096 23.6215 10.4764 23.7775 10.4118C23.9335 10.3472 24.0752 10.2525 24.1946 10.1331C24.314 10.0137 24.4087 9.87194 24.4733 9.71594C24.5379 9.55995 24.5712 9.39276 24.5712 9.22392C24.5712 8.88291 24.4357 8.55588 24.1946 8.31476C23.9535 8.07363 23.6264 7.93817 23.2854 7.93817C22.9444 7.93817 22.6174 8.07363 22.3763 8.31476C22.1351 8.55588 21.9997 8.88291 21.9997 9.22392H21.9997ZM15.7977 5.85737C15.7977 5.96996 15.8199 6.08145 15.863 6.18547C15.9061 6.28949 15.9692 6.38401 16.0488 6.46363C16.1284 6.54324 16.223 6.60639 16.327 6.64948C16.431 6.69257 16.5425 6.71474 16.6551 6.71474C16.7677 6.71474 16.8792 6.69257 16.9832 6.64948C17.0872 6.60639 17.1817 6.54324 17.2613 6.46363C17.3409 6.38401 17.4041 6.28949 17.4472 6.18547C17.4903 6.08145 17.5124 5.96996 17.5124 5.85737C17.5124 5.74478 17.4903 5.63329 17.4472 5.52927C17.4041 5.42525 17.3409 5.33073 17.2613 5.25112C17.1817 5.1715 17.0872 5.10835 16.9832 5.06526C16.8792 5.02218 16.7677 5 16.6551 5C16.5425 5 16.431 5.02218 16.327 5.06526C16.223 5.10835 16.1284 5.1715 16.0488 5.25112C15.9692 5.33073 15.9061 5.42525 15.863 5.52927C15.8199 5.63329 15.7977 5.74478 15.7977 5.85737Z" fill="#2D5CF6"/>
</svg>