<svg xmlns="http://www.w3.org/2000/svg" width="32" height="32" viewBox="0 0 32 32" fill="none">
  <path d="M15.9998 2.66675C23.3635 2.66675 29.3332 8.63642 29.3332 16.0001C29.3332 23.3637 23.3635 29.3334 15.9998 29.3334C8.63617 29.3334 2.6665 23.3637 2.6665 16.0001C2.6665 8.63642 8.63617 2.66675 15.9998 2.66675ZM21.7065 11.9591C21.6136 11.8663 21.5033 11.7927 21.3819 11.7425C21.2605 11.6923 21.1305 11.6665 20.9991 11.6666C20.8678 11.6667 20.7378 11.6927 20.6165 11.743C20.4952 11.7934 20.385 11.8671 20.2922 11.9601L14.3412 17.9201L11.7055 15.2954C11.5171 15.1107 11.2633 15.0079 10.9995 15.0095C10.7356 15.0111 10.4831 15.1169 10.2969 15.3038C10.1107 15.4907 10.0059 15.7437 10.0054 16.0075C10.0049 16.2714 10.1087 16.5248 10.2942 16.7124L13.6375 20.0421C13.8253 20.2291 14.0796 20.3339 14.3446 20.3335C14.6096 20.3332 14.8636 20.2276 15.0508 20.0401L21.7075 13.3734C21.8003 13.2805 21.8739 13.1702 21.9241 13.0488C21.9743 12.9274 22 12.7974 22 12.666C21.9999 12.5347 21.9739 12.4047 21.9235 12.2834C21.8732 12.1621 21.7994 12.0519 21.7065 11.9591Z" fill="#27AE60"/>
  <path d="M21.3823 11.7425C21.5037 11.7927 21.614 11.8663 21.7069 11.9591C21.7999 12.0519 21.8736 12.1621 21.924 12.2834C21.9743 12.4047 22.0003 12.5347 22.0004 12.666C22.0005 12.7974 21.9747 12.9274 21.9245 13.0488C21.8743 13.1702 21.8007 13.2805 21.7079 13.3734L15.0513 20.0401C14.864 20.2276 14.61 20.3332 14.345 20.3335C14.08 20.3339 13.8257 20.2291 13.6379 20.0421L10.2946 16.7124C10.1091 16.5247 10.0053 16.2714 10.0059 16.0075C10.0064 15.7437 10.1111 15.4907 10.2973 15.3038C10.4835 15.1169 10.7361 15.0111 10.9999 15.0095C11.2638 15.0079 11.5175 15.1107 11.7059 15.2954L14.3416 17.9201L20.2926 11.9601C20.3854 11.8671 20.4956 11.7934 20.6169 11.743C20.7382 11.6927 20.8682 11.6667 20.9996 11.6666C21.1309 11.6665 21.261 11.6923 21.3823 11.7425Z" fill="white"/>
</svg>