<svg xmlns="http://www.w3.org/2000/svg" width="32" height="32" viewBox="0 0 32 32" fill="none">
  <path d="M16 4C19.1826 4 22.2348 5.26428 24.4853 7.51472C26.7357 9.76516 28 12.8174 28 16C28 19.1826 26.7357 22.2348 24.4853 24.4853C22.2348 26.7357 19.1826 28 16 28C12.8174 28 9.76515 26.7357 7.51472 24.4853C5.26428 22.2348 4 19.1826 4 16C4 12.8174 5.26428 9.76516 7.51472 7.51472C9.76515 5.26428 12.8174 4 16 4ZM17.4118 8.23529H14.5882V23.7647H17.4118V8.23529ZM11.7647 11.0588H8.94118V20.9412H11.7647V11.0588ZM23.0588 12.4706H20.2353V19.5294H23.0588V12.4706Z" fill="#2D5CF6"/>
</svg>